<svg width="39" height="40" viewBox="0 0 39 40" fill="none" xmlns="http://www.w3.org/2000/svg">
<path fill-rule="evenodd" clip-rule="evenodd" d="M15.9077 28.7165C15.512 28.3312 15.5035 27.6981 15.8888 27.3024L22.999 20L15.8888 12.6976C15.5035 12.3019 15.512 11.6688 15.9077 11.2835C16.3034 10.8982 16.9365 10.9067 17.3218 11.3024L25.1112 19.3024C25.4893 19.6906 25.4893 20.3094 25.1112 20.6976L17.3218 28.6976C16.9365 29.0933 16.3034 29.1018 15.9077 28.7165Z" fill="#757575"/>
<path fill-rule="evenodd" clip-rule="evenodd" d="M9.76316 2C5.50066 2 2 5.55642 2 10L2 30C2 34.4436 5.50065 38 9.76315 38L29.2368 38C33.4993 38 37 34.4436 37 30L37 10C37 5.55642 33.4993 2 29.2368 2L9.76316 2ZM-8.74228e-07 10C-3.93618e-07 4.50246 4.34614 3.79952e-07 9.76316 8.53522e-07L29.2368 2.55597e-06C34.6539 3.02954e-06 39 4.50246 39 10L39 30C39 35.4975 34.6539 40 29.2368 40L9.76315 40C4.34614 40 -3.10329e-06 35.4975 -2.62268e-06 30L-8.74228e-07 10Z" fill="#757575"/>
</svg>
