<svg width="40" height="40" viewBox="0 0 40 40" fill="none" xmlns="http://www.w3.org/2000/svg">
<path fill-rule="evenodd" clip-rule="evenodd" d="M24.7071 11.2929C25.0976 11.6834 25.0976 12.3166 24.7071 12.7071L17.4142 20L24.7071 27.2929C25.0976 27.6834 25.0976 28.3166 24.7071 28.7071C24.3166 29.0976 23.6834 29.0976 23.2929 28.7071L15.2929 20.7071C14.9024 20.3166 14.9024 19.6834 15.2929 19.2929L23.2929 11.2929C23.6834 10.9024 24.3166 10.9024 24.7071 11.2929Z" fill="#757575"/>
<path fill-rule="evenodd" clip-rule="evenodd" d="M30 38C34.4183 38 38 34.4183 38 30L38 10C38 5.58172 34.4183 2 30 2L10 2C5.58172 2 2 5.58172 2 10L2 30C2 34.4183 5.58172 38 10 38H30ZM40 30C40 35.5228 35.5228 40 30 40L10 40C4.47715 40 0 35.5228 0 30L0 10C0 4.47715 4.47715 0 10 0L30 0C35.5228 0 40 4.47715 40 10L40 30Z" fill="#757575"/>
</svg>
