<svg width="37" height="36" viewBox="0 0 37 36" fill="none" xmlns="http://www.w3.org/2000/svg">
<path fill-rule="evenodd" clip-rule="evenodd" d="M29.2501 5.50732C25.549 5.50732 22.4571 8.22099 21.8575 11.7573H3.78625C1.75467 11.7573 0.207695 13.6502 0.55139 15.6343L3.39563 32.0552C3.74379 34.065 5.52035 35.5073 7.53625 35.5073H28.4957C30.5137 35.5073 32.2619 34.0561 32.6339 32.0723C32.6348 32.0666 32.6356 32.0609 32.6364 32.0551L35.1339 17.646C36.145 16.3676 36.7501 14.7554 36.7501 13.0073C36.7501 8.88 33.3774 5.50732 29.2501 5.50732ZM29.2501 8.00732C32.0263 8.00732 34.2501 10.2311 34.2501 13.0073C34.2501 15.7835 32.0263 18.0073 29.2501 18.0073C26.4739 18.0073 24.2501 15.7835 24.2501 13.0073C24.2501 10.2311 26.4739 8.00732 29.2501 8.00732ZM3.78625 14.2573H21.8575C22.4571 17.7937 25.549 20.5073 29.2501 20.5073C30.3001 20.5073 31.2999 20.288 32.2091 19.8945L30.1779 31.6133C30.0247 32.4301 29.3273 33.0073 28.4957 33.0073H7.53625C6.70266 33.0073 5.99478 32.4282 5.85657 31.6304L3.01233 15.2095C2.92015 14.6773 3.2641 14.2573 3.78625 14.2573Z" fill="#8F8F8F"/>
<path fill-rule="evenodd" clip-rule="evenodd" d="M12.1311 0.590272C11.9774 0.648967 11.8369 0.737416 11.7175 0.85053C11.5981 0.963644 11.5022 1.0992 11.4353 1.24945L6.43527 12.4994C6.36853 12.6495 6.33202 12.8112 6.3278 12.9753C6.32359 13.1395 6.35176 13.3029 6.41071 13.4562C6.46966 13.6094 6.55823 13.7495 6.67136 13.8686C6.78448 13.9876 6.91996 14.0832 7.07003 14.1498C7.22007 14.2166 7.38179 14.2531 7.54594 14.2573C7.7101 14.2615 7.87348 14.2333 8.02674 14.1744C8.18001 14.1154 8.32016 14.0269 8.43918 13.9137C8.5582 13.8006 8.65377 13.6651 8.72042 13.5151L13.7204 2.26507C13.7872 2.11504 13.8237 1.95333 13.8279 1.78917C13.8321 1.62502 13.8039 1.46163 13.745 1.30837C13.686 1.1551 13.5975 1.01495 13.4843 0.895924C13.3712 0.776901 13.2357 0.681337 13.0857 0.614686C12.7832 0.480554 12.44 0.47175 12.1311 0.590272Z" fill="#8F8F8F"/>
<path fill-rule="evenodd" clip-rule="evenodd" d="M23.5835 0.514763C23.366 0.491763 23.1463 0.526024 22.9463 0.614899C22.3151 0.895211 22.0309 1.63425 22.3116 2.26527L24.5113 7.214C25.1575 6.68348 25.8906 6.25659 26.689 5.964L24.5943 1.24965C24.4597 0.94667 24.2103 0.709572 23.9009 0.590485C23.7989 0.551485 23.6922 0.526138 23.5835 0.514763Z" fill="#8F8F8F"/>
<path fill-rule="evenodd" clip-rule="evenodd" d="M18 16.7573C17.6685 16.7573 17.3505 16.889 17.1161 17.1235C16.8817 17.3579 16.75 17.6758 16.75 18.0073V28.0073C16.75 28.3388 16.8817 28.6568 17.1161 28.8912C17.3505 29.1256 17.6685 29.2573 18 29.2573C18.3315 29.2573 18.6495 29.1256 18.8839 28.8912C19.1183 28.6568 19.25 28.3388 19.25 28.0073V18.0073C19.25 17.6758 19.1183 17.3579 18.8839 17.1235C18.6495 16.889 18.3315 16.7573 18 16.7573Z" fill="#8F8F8F"/>
<path fill-rule="evenodd" clip-rule="evenodd" d="M13 16.7573C12.6685 16.7573 12.3505 16.889 12.1161 17.1235C11.8817 17.3579 11.75 17.6758 11.75 18.0073V28.0073C11.75 28.3388 11.8817 28.6568 12.1161 28.8912C12.3505 29.1256 12.6685 29.2573 13 29.2573C13.3315 29.2573 13.6495 29.1256 13.8839 28.8912C14.1183 28.6568 14.25 28.3388 14.25 28.0073V18.0073C14.25 17.6758 14.1183 17.3579 13.8839 17.1235C13.6495 16.889 13.3315 16.7573 13 16.7573Z" fill="#8F8F8F"/>
<path fill-rule="evenodd" clip-rule="evenodd" d="M23 20.5073C22.6685 20.5073 22.3505 20.639 22.1161 20.8735C21.8817 21.1079 21.75 21.4258 21.75 21.7573V28.0073C21.75 28.3388 21.8817 28.6568 22.1161 28.8912C22.3505 29.1256 22.6685 29.2573 23 29.2573C23.3315 29.2573 23.6495 29.1256 23.8839 28.8912C24.1183 28.6568 24.25 28.3388 24.25 28.0073V21.7573C24.25 21.4258 24.1183 21.1079 23.8839 20.8735C23.6495 20.639 23.3315 20.5073 23 20.5073Z" fill="#8F8F8F"/>
<path fill-rule="evenodd" clip-rule="evenodd" d="M29.25 9.25732C28.9185 9.25732 28.6005 9.38902 28.3661 9.62344C28.1317 9.85786 28 10.1758 28 10.5073V11.7573H26.75C26.4185 11.7573 26.1005 11.889 25.8661 12.1234C25.6317 12.3579 25.5 12.6758 25.5 13.0073C25.5 13.3388 25.6317 13.6568 25.8661 13.8912C26.1005 14.1256 26.4185 14.2573 26.75 14.2573H28V15.5073C28 15.8388 28.1317 16.1568 28.3661 16.3912C28.6005 16.6256 28.9185 16.7573 29.25 16.7573C29.5815 16.7573 29.8995 16.6256 30.1339 16.3912C30.3683 16.1568 30.5 15.8388 30.5 15.5073V14.2573H31.75C32.0815 14.2573 32.3995 14.1256 32.6339 13.8912C32.8683 13.6568 33 13.3388 33 13.0073C33 12.6758 32.8683 12.3579 32.6339 12.1234C32.3995 11.889 32.0815 11.7573 31.75 11.7573H30.5V10.5073C30.5 10.1758 30.3683 9.85786 30.1339 9.62344C29.8995 9.38902 29.5815 9.25732 29.25 9.25732Z" fill="#8F8F8F"/>
</svg>
