<svg width="58" height="58" viewBox="0 0 58 58" fill="none" xmlns="http://www.w3.org/2000/svg">
<g clip-path="url(#clip0_327_330)">
<path fill-rule="evenodd" clip-rule="evenodd" d="M51.1765 16.2627H46.6275L39.804 1.02351C39.6902 0.796056 39.5765 0.568605 39.3491 0.45488C39.1216 0.227429 39.0079 0.113703 38.7804 0.113703C38.3255 -0.113748 37.8706 -2.20239e-05 37.4157 0.113703C37.1883 0.227429 36.9608 0.341154 36.8471 0.568605C36.6196 0.682331 36.5059 0.909782 36.3922 1.13723C36.2785 1.36468 36.2785 1.59213 36.2785 1.81959C36.2785 2.04704 36.2785 2.27449 36.3922 2.50194L42.5334 16.2627H29.5687H15.9216L22.0628 2.50194C22.1765 2.27449 22.1765 2.04704 22.1765 1.81959C22.1765 1.59213 22.1765 1.36468 22.0628 1.13723C21.9491 0.909782 21.8353 0.682331 21.7216 0.568605C21.6079 0.341154 21.3804 0.227429 21.153 0.113703C20.6981 -0.113748 20.2432 -0.113748 19.7883 0.113703C19.5608 0.227429 19.3334 0.341154 19.2197 0.45488C19.1059 0.568605 18.8785 0.796056 18.7647 1.02351L11.9412 16.2627H8.07455C5.11769 16.2627 2.84318 18.9921 3.41181 21.8353L7.50592 45.6039C8.07455 48.5608 10.5765 50.6078 13.5334 50.6078H45.7177C48.6746 50.6078 51.1765 48.5608 51.7451 45.6039L55.8393 21.8353C56.2942 19.1059 54.0196 16.2627 51.1765 16.2627ZM48.1059 45.149C47.8785 46.2863 46.8549 47.1961 45.7177 47.1961H13.5334C12.2824 47.1961 11.2589 46.4 11.1451 45.149L6.9373 21.2666C6.82357 20.4706 7.27847 19.9019 8.07455 19.9019H29.5687H51.1765C51.9726 19.9019 52.4275 20.4706 52.3138 21.2666L48.1059 45.149Z" fill="white"/>
<path fill-rule="evenodd" clip-rule="evenodd" d="M29.7962 24.4509C29.3413 24.4509 28.8864 24.6784 28.5452 25.0196C28.204 25.3607 27.9766 25.8156 27.9766 26.2705V40.7137C27.9766 41.1686 28.204 41.6235 28.5452 41.9647C28.8864 42.3058 29.3413 42.5333 29.7962 42.5333C30.2511 42.5333 30.706 42.3058 31.0471 41.9647C31.3883 41.6235 31.6158 41.1686 31.6158 40.7137V26.2705C31.6158 25.8156 31.3883 25.3607 31.0471 25.0196C30.8197 24.6784 30.3648 24.4509 29.7962 24.4509Z" fill="white"/>
<path fill-rule="evenodd" clip-rule="evenodd" d="M37.302 24.4509C36.8471 24.4509 36.3922 24.6784 36.051 25.0196C35.7099 25.3607 35.4824 25.8156 35.4824 26.2705V40.8274C35.4824 41.2823 35.7099 41.7372 36.051 42.0784C36.3922 42.4196 36.8471 42.647 37.302 42.647C37.7569 42.647 38.2118 42.4196 38.553 42.0784C38.8942 41.7372 39.1216 41.2823 39.1216 40.8274V26.2705C39.1216 25.8156 38.8942 25.3607 38.553 25.0196C38.3256 24.6784 37.7569 24.4509 37.302 24.4509Z" fill="white"/>
<path fill-rule="evenodd" clip-rule="evenodd" d="M22.6314 24.4509C22.1765 24.4509 21.7216 24.6784 21.3804 25.0196C21.0392 25.3607 20.8118 25.8156 20.8118 26.2705V40.7137C20.8118 41.1686 21.0392 41.6235 21.3804 41.9647C21.7216 42.3058 22.1765 42.5333 22.6314 42.5333C23.0863 42.5333 23.5412 42.3058 23.8824 41.9647C24.2235 41.6235 24.451 41.1686 24.451 40.7137V26.2705C24.451 25.8156 24.2235 25.3607 23.8824 25.0196C23.5412 24.6784 23.0863 24.4509 22.6314 24.4509Z" fill="white"/>
</g>
<defs>
<clipPath id="clip0_327_330">
<rect width="58" height="58" fill="white"/>
</clipPath>
</defs>
</svg>
