<svg width="149" height="67" viewBox="0 0 149 67" fill="none" xmlns="http://www.w3.org/2000/svg">
<g clip-path="url(#clip0_48_170)">
<path d="M41.4842 45.7844L41.493 45.7931L41.4134 45.837C37.0732 49.2954 31.6722 51.1651 26.1121 51.1563C13.4538 51.1651 0 42.1065 0 25.3236C0 13.3508 11.5357 0 28.0834 0C40.5914 0 46.0365 8.97079 46.0365 8.97079C42.8808 11.4549 41.988 17.2218 41.988 17.2218C41.767 15.5453 40.0875 2.0452 28.4193 1.81698V1.8082H28.2248C19.6416 1.8082 9.05173 16.0631 14.4439 30.0723C20.0482 44.6608 36.8787 46.3373 47.1238 37.033L48.2288 37.8757C46.5139 40.9215 44.2244 43.6075 41.4842 45.7844Z" fill="white"/>
<path d="M66.5443 51.1651H52.7723L52.7634 0.965576C52.7634 0.965576 66.5178 0.965576 66.5178 11.0862L66.5443 51.1651Z" fill="white"/>
<path d="M111.175 49.3305C110.185 50.2521 108.232 51.165 105.368 51.165C98.5967 51.165 95.2819 48.3123 95.2819 44.0639C93.6819 47.6452 89.7836 50.5418 82.8004 51.1124C82.3495 51.1475 81.9076 51.165 81.4833 51.165C75.4016 51.165 72.2194 47.496 71.7509 43.6426C71.1763 38.8675 75.1188 34.9527 82.544 32.1614C97.4475 26.57 92.188 12.5081 85.0721 15.8788C80.8645 17.8713 78.4601 25.5781 80.5109 28.703C80.5109 28.703 77.6204 24.595 73.6514 23.884C73.6514 23.884 79.0347 13.7458 90.3052 13.7107C90.4024 13.7107 90.4996 13.7019 90.6057 13.7019C103.07 13.7019 108.002 20.408 108.002 29.5544C108.002 32.1175 108.188 38.455 108.188 40.4124C108.188 48.1016 111.175 49.3305 111.175 49.3305ZM95.2819 25.2445C95.2819 18.5121 91.0919 16.0982 91.0919 16.0982C94.5482 19.7761 93.6465 25.5869 88.935 30.5287C85.576 34.0486 83.9584 38.0687 83.9584 41.729C83.9584 44.2745 85.355 47.0044 87.6356 47.575C89.7925 48.1192 91.3394 47.3818 93.125 45.3805C94.5393 43.7742 95.3084 41.7027 95.2907 39.5697V25.2445H95.2819Z" fill="white"/>
<path d="M149 14.1672L130.127 51.1739C130.127 51.1739 126.565 57.6518 123.135 60.7504C117.177 66.1399 109.876 68.1763 104.882 66.3593C104.882 66.3593 107.374 64.4194 108.046 58.7139C108.046 58.7139 123.003 62.2601 129.058 51.6391L109.443 14.176H123.339L135.458 38.7623L138.384 32.89C143.882 21.2772 140.134 14.3867 140.134 14.3867C143.086 14.6149 146.065 14.5447 149 14.1672Z" fill="white"/>
</g>
<defs>
<clipPath id="clip0_48_170">
<rect width="149" height="67" fill="white"/>
</clipPath>
</defs>
</svg>
